<mxfile host="app.diagrams.net" modified="2024-01-05T13:49:45.278Z" agent="Mozilla/5.0 (X11; Linux x86_64; rv:121.0) Gecko/20100101 Firefox/121.0" version="22.1.16" etag="L47QIrLAV5R25YGEkI4l" type="github">
  <diagram name="Page-1" id="R3FoyOwFP3ONXE-A02rE">
    <mxGraphModel>
      <root>
        <mxCell id="0" />
        <mxCell id="1" parent="0" />
      </root>
    </mxGraphModel>
  </diagram>
</mxfile>
